<?xml version="1.0" encoding="UTF-8"?>
<svg version="1.1" xmlns="http://www.w3.org/2000/svg" width="863" height="559">
<path d="M0 0 C284.79 0 569.58 0 863 0 C863 184.47 863 368.94 863 559 C578.21 559 293.42 559 0 559 C0 374.53 0 190.06 0 0 Z " fill="#202020" transform="translate(0,0)"/>
<path d="M0 0 C4.60899048 1.76514529 6.74559823 4.65818919 9 9 C9.65293024 14.22344192 8.845108 17.58517724 6 22 C1.68123854 25.89741887 -0.99534723 27.36701401 -6.90234375 27.28125 C-10.36571944 26.81688678 -12.39475173 25.24172526 -15 23 C-18.34713693 18.15242238 -19.49604715 14.95256586 -19 9 C-14.30538151 0.2814228 -9.43160379 -1.01052898 0 0 Z " fill="#513A97" transform="translate(362,267)"/>
<path d="M0 0 C15.1 0 15.1 0 19 3 C22.42872169 6.87986928 23.66819797 9.96663654 23.38671875 15.04296875 C22.54248288 19.31531393 20.20785186 22.08548359 16.8125 24.65625 C13.24957329 26.35853721 10.61680348 26.29766739 6.6875 26.1875 C3.3771875 26.0946875 3.3771875 26.0946875 0 26 C0 17.42 0 8.84 0 0 Z " fill="#7138A3" transform="translate(424,267)"/>
<path d="M0 0 C0.99 0.66 1.98 1.32 3 2 C3.33 1.34 3.66 0.68 4 0 C5.65 0 7.3 0 9 0 C9 6.93 9 13.86 9 21 C6.66666667 21 4.33333333 21 2 21 C1.34 21.33 0.68 21.66 0 22 C-2.94827837 22.40203796 -5.08145963 22.54942715 -7.69140625 20.98828125 C-10.40626033 18.80985617 -11.8883354 17.33499379 -13 14 C-13.37066773 8.99598565 -13.09881835 6.01698676 -10 2 C-6.31282562 -0.45811625 -4.35654296 -0.31118164 0 0 Z " fill="#66399F" transform="translate(409,272)"/>
<path d="M0 0 C1.6484375 1.19140625 1.6484375 1.19140625 4.2109375 4.12890625 C4.2109375 6.43890625 4.2109375 8.74890625 4.2109375 11.12890625 C-0.7390625 11.12890625 -5.6890625 11.12890625 -10.7890625 11.12890625 C-10.1290625 12.44890625 -9.4690625 13.76890625 -8.7890625 15.12890625 C-6.78951504 15.17144981 -4.78864614 15.16971408 -2.7890625 15.12890625 C-2.4590625 14.79890625 -2.1290625 14.46890625 -1.7890625 14.12890625 C0.21052114 14.08809842 2.21139004 14.08636269 4.2109375 14.12890625 C2.87129428 16.67422838 1.78322879 18.69968778 -0.5390625 20.44140625 C-3.8101243 21.44089736 -6.38648838 21.48707195 -9.7890625 21.12890625 C-12.54235271 19.3332822 -14.31533711 18.07635703 -15.7890625 15.12890625 C-16.31685044 10.24037863 -16.51906736 6.36236275 -13.9765625 2.06640625 C-10.08912855 -1.37674953 -4.799357 -2.33680483 0 0 Z " fill="#7734A3" transform="translate(514.7890625,272.87109375)"/>
<path d="M0 0 C3.7742893 1.16659851 5.30801297 1.74050024 7.4375 5.0625 C8.14601227 10.02208592 8.18305354 11.92087114 5.4375 16.125 C1.90477422 18.40655207 0.26062557 18.52932795 -3.7578125 17.6953125 C-5.5625 17.0625 -5.5625 17.0625 -7.5625 15.5 C-9.00953228 11.97285883 -9.33071499 8.76456464 -8.5625 5.0625 C-5.92505032 1.14628685 -4.76629682 0.08361924 0 0 Z " fill="#222125" transform="translate(357.5625,270.9375)"/>
<path d="M0 0 C1.98 0 3.96 0 6 0 C7.65 4.62 9.3 9.24 11 14 C12.65 9.38 14.3 4.76 16 0 C17.98 0 19.96 0 22 0 C19.66666667 7 17.33333333 14 15 21 C12.36 21 9.72 21 7 21 C5.82807565 17.87694627 4.66336124 14.75125261 3.5 11.625 C3.16613281 10.73554688 2.83226562 9.84609375 2.48828125 8.9296875 C2.01455078 7.65351563 2.01455078 7.65351563 1.53125 6.3515625 C1.09135742 5.17327881 1.09135742 5.17327881 0.64257812 3.97119141 C0 2 0 2 0 0 Z " fill="#7635A0" transform="translate(475,272)"/>
<path d="M0 0 C1.65 0 3.3 0 5 0 C5.26554687 0.68707031 5.53109375 1.37414062 5.8046875 2.08203125 C6.15789062 2.98308594 6.51109375 3.88414062 6.875 4.8125 C7.39707031 6.15248047 7.39707031 6.15248047 7.9296875 7.51953125 C8.98832155 10.17711591 8.98832155 10.17711591 11 13 C11.27714844 12.14535156 11.55429687 11.29070312 11.83984375 10.41015625 C12.20207031 9.30542969 12.56429688 8.20070313 12.9375 7.0625 C13.29714844 5.96035156 13.65679687 4.85820312 14.02734375 3.72265625 C15 1 15 1 16 0 C17.66617115 -0.04063832 19.33388095 -0.042721 21 0 C19.62820313 7.48252838 17.07836721 14.05604954 14 21 C11.69 21 9.38 21 7 21 C5.82504857 18.06574629 4.66149148 15.12710487 3.5 12.1875 C3.16613281 11.35412109 2.83226562 10.52074219 2.48828125 9.66210938 C2.17246094 8.85966797 1.85664063 8.05722656 1.53125 7.23046875 C1.23798828 6.49207764 0.94472656 5.75368652 0.64257812 4.99291992 C0 3 0 3 0 0 Z " fill="#5B399A" transform="translate(373,272)"/>
<path d="M0 0 C8 0 8 0 10.5 1.4375 C12.73145407 5.24956737 12.90002172 8.69726459 12 13 C9.9375 15.5625 9.9375 15.5625 7 17 C4.69 17 2.38 17 0 17 C0 11.39 0 5.78 0 0 Z " fill="#222122" transform="translate(429,272)"/>
<path d="M0 0 C1.65 0 3.3 0 5 0 C5.33 0.66 5.66 1.32 6 2 C6.99 1.34 7.98 0.68 9 0 C9.99 0 10.98 0 12 0 C12 1.98 12 3.96 12 6 C10.02 6.66 8.04 7.32 6 8 C5.67 12.29 5.34 16.58 5 21 C3.35 21 1.7 21 0 21 C0 14.07 0 7.14 0 0 Z " fill="#7638A4" transform="translate(451,272)"/>
<path d="M0 0 C1.98 0 3.96 0 6 0 C6 7.26 6 14.52 6 22 C4.02 22 2.04 22 0 22 C0 14.74 0 7.48 0 0 Z " fill="#6D3497" transform="translate(466,272)"/>
<path d="M0 0 C3.0625 0.3125 3.0625 0.3125 4.9375 1.4375 C6.59104531 4.19340884 6.45615568 6.16325452 6.0625 9.3125 C5 11.25 5 11.25 3.0625 12.3125 C-0.5625 12.125 -0.5625 12.125 -3.9375 11.3125 C-5.44412097 8.29925805 -5.11520373 5.62963623 -4.9375 2.3125 C-2.9375 0.3125 -2.9375 0.3125 0 0 Z " fill="#232126" transform="translate(406.9375,276.6875)"/>
<path d="M0 0 C4.95 0 9.9 0 15 0 C15 0.99 15 1.98 15 3 C10.52169972 4.43305609 6.76082745 5.44286767 2 5 C1.34 4.34 0.68 3.68 0 3 C0 2.01 0 1.02 0 0 Z " fill="#2E2335" transform="translate(504,284)"/>
<path d="M0 0 C1.98 0 3.96 0 6 0 C6.66 1.32 7.32 2.64 8 4 C4.7 4 1.4 4 -2 4 C-1.34 2.68 -0.68 1.36 0 0 Z " fill="#262229" transform="translate(506,277)"/>
<path d="M0 0 C1.65 0.33 3.3 0.66 5 1 C4.67 2.65 4.34 4.3 4 6 C2.35 5.67 0.7 5.34 -1 5 C-0.67 3.35 -0.34 1.7 0 0 Z " fill="#8239A5" transform="translate(467,264)"/>
</svg>
